HIERARCHY
ROOT pelvis
{
  OFFSET 0 100 0
  CHANNELS 6 Xposition Yposition Zposition Zrotation Xrotation Yrotation
  JOINT pelvis_right_femur
  {
    OFFSET -10.78128 -3.44521 -0.5502486
    CHANNELS 3 Zrotation Xrotation Yrotation
    JOINT right_femur_tibia
    {
      OFFSET -0.8047443 -44.0398 -0.1307829
      CHANNELS 3 Zrotation Xrotation Yrotation
      JOINT right_tibia_foot
      {
        OFFSET 3.006224 -47.83518 -5
        CHANNELS 3 Zrotation Xrotation Yrotation
        End Site
        {
          OFFSET 0 -5 15
        }
      }
    }
  }
  JOINT pelvis_left_femur
  {
    OFFSET 10.78128 -3.44521 -0.5502486
    CHANNELS 3 Zrotation Xrotation Yrotation
    JOINT left_femur_tibia
    {
      OFFSET 0.8047443 -44.0398 -0.1307829
      CHANNELS 3 Zrotation Xrotation Yrotation
      JOINT left_tibia_foot
      {
        OFFSET -4.370144 -48.10324 -4.275266
        CHANNELS 3 Zrotation Xrotation Yrotation
        End Site
        {
          OFFSET 0 -5 15
        }
      }
    }
  }
  JOINT pelvis_spine1
  {
    OFFSET 0 6.468898 -3.129235
    CHANNELS 3 Zrotation Xrotation Yrotation
    JOINT spine1
    {
      OFFSET 0 23.15396 4.99043
      CHANNELS 3 Zrotation Xrotation Yrotation
      JOINT spine2
      {
        OFFSET 0 20.79997 -5.064912
        CHANNELS 3 Zrotation Xrotation Yrotation
        JOINT neck
        {
          OFFSET 0 14.38658 9.616178
          CHANNELS 3 Zrotation Xrotation Yrotation
          End Site
          {
            OFFSET 0 20 0
          }
        }
      }
      JOINT right_manubrium
      {
        OFFSET -5.722621 16.35077 3.967754
        CHANNELS 3 Zrotation Xrotation Yrotation
        JOINT right_clavicle
        {
          OFFSET -13.16364 1.694482 -4.693211
          CHANNELS 3 Zrotation Xrotation Yrotation
          JOINT right_humerus
          {
            OFFSET -28.5034 -0.3100689 -2.792744
            CHANNELS 3 Zrotation Xrotation Yrotation
            JOINT right_radius
            {
              OFFSET -25.15693 0.02248979 -1.271978
              CHANNELS 3 Zrotation Xrotation Yrotation
              End Site
              {
                OFFSET -15 0 0
              }
            }
          }
        }
      }
      JOINT left_manubrium
      {
        OFFSET 5.722621 16.35077 3.967754
        CHANNELS 3 Zrotation Xrotation Yrotation
        JOINT left_clavicle
        {
          OFFSET 13.16364 1.694482 -4.693211
          CHANNELS 3 Zrotation Xrotation Yrotation
          JOINT left_humerus
          {
            OFFSET 29.39168 -1.063119 -2.237045
            CHANNELS 3 Zrotation Xrotation Yrotation
            JOINT left_radius
            {
              OFFSET 24.59957 -0.9528479 0.9047498
              CHANNELS 3 Zrotation Xrotation Yrotation
              End Site
              {
                OFFSET 15 -0 -0
              }
            }
          }
        }
      }
    }
  }
}
MOTION
Frames: 7
Frame Time: 0.0416666666667
0 103.5113 0 2.35898 -2.803273 0.219334 1.277572 -11.0445 7.717622 -0 37.9366 -0 -5.406783 -17.38967 -3.535572 -7.736311 11.95209 -23.68236 -0 4.683565 -0 8.502278 -15.16323 26.18764 -2.662537 -3.761262 4.872053 3.370115 9.630694 -8.345779 1.458349 21.22862 6.261494 2.500948 -26.67839 9.742897 5.771739 -19.43043 11.24212 86.40765 33.74646 -21.05271 -0 0 15.64983 -5.951406 7.648752 3.243004 6.478191 -20.92036 -0.5296738 -95.48173 26.26316 23.8015 0 0 -14.52546 9.050678 16.9382 3.657078
0.2525142 103.5666 1.407088 1.810022 -1.476414 0.262201 2.134862 -13.71173 8.600183 -0 38.22361 -0 -4.908932 -17.12998 -3.700195 -7.509475 11.61209 -23.63293 -0 4.437333 -0 7.457722 -16.52641 26.11395 -2.718289 -3.831299 4.861866 3.382372 9.619378 -8.357529 1.468832 21.25211 6.243786 2.477924 -26.66859 9.758111 5.78083 -19.45865 11.24205 86.35522 33.66558 -21.01928 -0 0 15.75036 -5.947375 7.631829 3.208184 6.50232 -20.89992 -0.482044 -95.53928 26.23291 23.81753 0 0 -14.31946 9.07199 17.07157 3.570019
0.4875617 103.5306 3.030686 1.167503 -0.6607152 0.3273908 3.214809 -17.31351 8.260108 -0 36.36998 -0 -5.358199 -15.4759 -3.461042 -7.15046 11.67784 -22.93563 -0 4.854061 -0 6.747079 -18.10888 25.67488 -2.262756 -3.267564 4.904893 3.311219 9.702764 -8.305092 1.40335 20.97829 6.438188 2.698635 -26.78853 9.693501 5.722782 -19.21792 11.25495 86.79589 34.31643 -21.34297 -0 0 14.95384 -5.967344 7.890162 3.442739 6.415727 -21.11457 -0.7906477 -94.91854 26.21227 23.44933 0 0 -16.0981 9.183801 15.98003 3.941952
0.7171354 103.4317 4.837186 0.5777269 0.2298324 0.4122195 4.232016 -20.63438 8.327785 -0 34.783 -0 -5.53469 -14.03238 -3.35023 -6.827721 11.68652 -22.40663 -0 5.098921 -0 5.940799 -19.61453 25.22666 -2.097249 -3.083054 4.901585 3.313327 9.724695 -8.322064 1.392567 20.84145 6.524278 2.788828 -26.8837 9.705618 5.7 -19.13588 11.25805 87.00641 34.50663 -21.57389 -0 0 14.67606 -5.882031 7.983155 3.445116 6.434569 -21.22639 -0.8908095 -94.69125 26.19756 23.27641 0 0 -16.85205 9.275568 15.60852 4.043469
0.9483309 103.2254 6.895414 0.01194027 1.02991 0.531536 5.24621 -24.1139 8.197119 -0 32.44978 -0 -5.83701 -12.24284 -3.139796 -6.509313 11.8425 -21.73781 -0 5.446406 -0 5.273862 -21.09147 24.62593 -1.863742 -2.855732 4.905914 3.322934 9.758267 -8.3643 1.376022 20.66263 6.626166 2.905184 -27.03164 9.710916 5.656632 -19.03899 11.25418 87.36635 34.70817 -22.02056 -0 0 14.29463 -5.70163 8.045436 3.389839 6.449887 -21.40462 -1.075729 -94.48578 26.36796 23.16777 0 0 -17.9592 9.222465 15.12871 4.440064
1.185797 102.8908 9.25137 -0.5002441 1.773223 0.7034027 6.169132 -27.47711 7.95819 -0 29.6286 -0 -6.16114 -10.32669 -2.865609 -6.215275 12.12192 -21.02174 -0 5.826652 -0 4.59982 -22.46824 23.84771 -1.677124 -2.681803 4.899869 3.336342 9.781242 -8.408928 1.364104 20.50409 6.71873 3.003759 -27.15598 9.725653 5.622191 -18.96029 11.25302 87.66536 34.86254 -22.40001 -0 0 13.99047 -5.562314 8.116324 3.339297 6.484841 -21.56016 -1.211709 -94.29215 26.46204 23.03712 0 0 -18.8739 9.220711 14.7433 4.709804
1.430588 102.4087 11.98162 -0.9556138 2.466803 0.9536957 6.95973 -30.6752 7.50176 -0 26.1682 -0 -6.527981 -8.266829 -2.488257 -5.945564 12.57674 -20.19 -0 6.34479 -0 3.902409 -23.6409 22.79455 -1.474762 -2.504312 4.897149 3.343492 9.810521 -8.458478 1.345612 20.34175 6.813441 3.107528 -27.27037 9.725886 5.583114 -18.87763 11.25215 88.00316 35.01584 -22.82925 -0 0 13.66084 -5.448372 8.193503 3.29676 6.516524 -21.73577 -1.371778 -94.10066 26.60251 22.92421 0 0 -19.85371 9.15192 14.33099 5.083829
